<mxfile host="app.diagrams.net" agent="Mozilla/5.0 (Windows NT 10.0; Win64; x64) AppleWebKit/537.36 (KHTML, like Gecko) Chrome/131.0.0.0 Safari/537.36" version="26.0.5">
  <diagram name="第 1 页" id="cCzXgkbojpL82QBRi7zA">
    <mxGraphModel dx="1810" dy="1017" grid="1" gridSize="10" guides="1" tooltips="1" connect="1" arrows="1" fold="1" page="1" pageScale="1" pageWidth="1169" pageHeight="827" math="0" shadow="0">
      <root>
        <mxCell id="0" />
        <mxCell id="1" parent="0" />
        <mxCell id="OmFvpLN7wpqNAPohdMCB-7" style="edgeStyle=orthogonalEdgeStyle;rounded=0;orthogonalLoop=1;jettySize=auto;html=1;exitX=0.5;exitY=0.5;exitDx=0;exitDy=0;exitPerimeter=0;" edge="1" parent="1">
          <mxGeometry relative="1" as="geometry">
            <mxPoint x="114" y="240" as="targetPoint" />
            <mxPoint x="49" y="240" as="sourcePoint" />
          </mxGeometry>
        </mxCell>
        <mxCell id="OmFvpLN7wpqNAPohdMCB-2" value="Actor" style="shape=umlActor;verticalLabelPosition=bottom;verticalAlign=top;html=1;outlineConnect=0;" vertex="1" parent="1">
          <mxGeometry x="30" y="210" width="30" height="60" as="geometry" />
        </mxCell>
        <mxCell id="OmFvpLN7wpqNAPohdMCB-8" style="edgeStyle=orthogonalEdgeStyle;rounded=0;orthogonalLoop=1;jettySize=auto;html=1;exitX=1;exitY=0.5;exitDx=0;exitDy=0;entryX=0;entryY=0.5;entryDx=0;entryDy=0;" edge="1" parent="1" source="OmFvpLN7wpqNAPohdMCB-3" target="OmFvpLN7wpqNAPohdMCB-6">
          <mxGeometry relative="1" as="geometry" />
        </mxCell>
        <mxCell id="OmFvpLN7wpqNAPohdMCB-3" value="开始节点" style="rounded=1;whiteSpace=wrap;html=1;" vertex="1" parent="1">
          <mxGeometry x="120" y="210" width="120" height="60" as="geometry" />
        </mxCell>
        <mxCell id="OmFvpLN7wpqNAPohdMCB-4" value="结束节点" style="rounded=1;whiteSpace=wrap;html=1;" vertex="1" parent="1">
          <mxGeometry x="910" y="210" width="120" height="60" as="geometry" />
        </mxCell>
        <mxCell id="OmFvpLN7wpqNAPohdMCB-6" value="分支节点" style="rounded=1;whiteSpace=wrap;html=1;" vertex="1" parent="1">
          <mxGeometry x="320" y="210" width="120" height="60" as="geometry" />
        </mxCell>
      </root>
    </mxGraphModel>
  </diagram>
</mxfile>
